<?xml version="1.0" encoding="UTF-8"?>
<svg id="Layer_1" data-name="Layer 1" xmlns="http://www.w3.org/2000/svg" version="1.1" viewBox="0 0 168 163.3">
  <defs>
    <style>
      .cls-1, .cls-2 {
        stroke: #010101;
        stroke-miterlimit: 10;
        stroke-width: 2px;
      }

      .cls-1, .cls-3 {
        fill: #fff;
      }

      .cls-2 {
        fill: none;
      }

      .cls-3 {
        stroke-width: 0px;
      }
    </style>
  </defs>
  <g>
    <g>
      <g>
        <path class="cls-3" d="M103.6,84.4c.7-.4,1.3-.9,1.9-1.4,4.1-3.5,6.1-8.3,5.7-13.8-.3-4-2.3-8.1-5.3-11-2.7-2.7-6.1-4.2-10.1-4.5-12.2-1.1-15.3,2-16.8,8.5-.8,3.5-.1,7,2.1,10.2,3.3,4.8,9.7,9,17.3,11.2,1.8.5,3.6.8,5.2.8Z"/>
        <path class="cls-1" d="M106.2,90.1c-.9.5-1.7,1.1-2.5,1.6.9-.4,1.8-.9,2.7-1.4,6.5-.4,11.9-3.3,16.8-6,6.9-3.7,12.8-6.9,20.5-4,3,1.1,5.2,2.8,6.4,5,1.5,2.5,1.8,5.8.8,9.1-1.8,5.8-3.2,6.3-8.9,8.6-3.1,1.2-5.7,2.3-8.1,5.1-3.1,3.7-5.1,10.7-2.1,17.3,1.7,3.8,5.8,8.9,15.1,11.4l.6-5.7c-5.2-1.4-8.5-3.8-10.1-7.2-1.9-4.2-.6-9,1.6-11.7,1.6-1.9,3.8-2.8,6.2-3.8,4.3-1.7,9.2-3.6,11.6-11.5,1.5-4.7.9-9.7-1.4-13.7-2.2-3.7-5.8-6.6-10.4-8.3-10.5-3.9-18.1.2-25.5,4.2-1.4.8-2.9,1.6-4.3,2.3-2,2.8-6.4,7.2-9,8.8Z"/>
      </g>
      <path class="cls-1" d="M78.7,94.2c9.3,1.5,18.2.5,25-2.6.7-.5,1.6-1,2.5-1.6,2.6-1.6,6.9-6,9-8.8,1.7-3.4,2.4-7.2,2.1-11.4-.4-5.5-3.2-11.3-7.4-15.4-4-3.9-9-5.7-14.7-6.7-8.5-1.4-21.1,1.3-22.2,12.1-.6,5.2-.1,10.2,3.1,15,3.8,5.6,10.3,10.4,18.2,13.3-.2,0-.5.1-.8.2,5.7-.2,11.7-4.7,12.6-5.8-.9,1.1-7,5.7-12.6,5.8-.4,0-.8.1-1.3.2-6.6,1-12.2,0-13.5-.2-3.6-.7-9.2-1.6-14.8-5.6-4.7-3.4-8.4-8.3-11.7-15.2l-5.6,1.5c7.2,15.2,16.8,22.7,32.1,25.1ZM105.5,83c-.6.5-1.2,1-1.9,1.4-1.7,0-3.4-.3-5.2-.8-7.6-2.2-14.1-6.4-17.3-11.2-2.2-3.3-2.9-6.7-2.1-10.2,1.5-6.5,4.6-9.6,16.8-8.5,4,.4,7.4,1.9,10.1,4.5,3,2.9,5,7,5.3,11,.4,5.5-1.5,10.3-5.7,13.8Z"/>
    </g>
    <g>
      <path class="cls-1" d="M147.2,133.7h0c1-3.7,5.1-5.3,9.2-3.7l3.4,1.4-3.5,13.3-3.4-1.4c-4.1-1.6-6.6-6-5.7-9.6Z"/>
      <g>
        <polygon class="cls-1" points="158.3 136.8 159.3 133 166.8 136 165.8 139.8 158.3 136.8"/>
        <polygon class="cls-1" points="156.7 143.1 157.7 139.3 165.2 142.2 164.1 146.1 156.7 143.1"/>
      </g>
    </g>
  </g>
  <g>
    <path class="cls-1" d="M99.5,18.7L35.5,1.3c-1.1-.3-2.3-.4-3.5-.2L2.6,6.1c-.9.2-1.6,1-1.5,1.9v128.3c0,0,60.6,25.1,60.6,25.1,1.5,1.2,3.7,1.2,5.3.2l30.7-8.7c1.8-1.2,3-3.1,3.1-5.2l.6-23.9c.1-5.4.3-10.9.4-16.3.7-28.1,1.3-56.3,2-84.4,0-.2.1-2.1-1.5-3.4-1-.8-2.3-1.2-3.7-.9l-29.1,6.1c-.8.2-1.5.6-2,1.2-.5.6-.8,1.4-.8,2.2-.4,44.7-.8,89.3-1.2,134"/>
    <path class="cls-1" d="M16.2,103.7c0,3.3-.5,3.8,2.3,5.6l26.4,10.9c1.3.8,5.9,1.1,5.9-4.5l1.7-72.8c0-2.4-1.6-4.6-4-5.3l-27.9-8.6c-2.1-.7-4.3.9-4.2,3v71.6Z"/>
    <line class="cls-1" x1="1.4" y1="6.9" x2="67.4" y2="26.1"/>
    <path class="cls-1" d="M18.7,135.9l4.1,2.4c1.8,1.1,4.1-.2,4.1-2.1v-7.5c0-.9-.5-1.7-1.2-2.1l-4.1-2.4c-1.8-1.1-4.1.2-4.1,2.1v7.5c0,.9.5,1.7,1.2,2.1Z"/>
    <path class="cls-1" d="M7.4,129.8l4,1.5c.6.2,1.3-.2,1.3-.8v-13.8c0-.4-.2-.7-.6-.8l-4-1.5c-.6-.2-1.3.2-1.3.8v13.8c0,.4.2.7.6.8Z"/>
    <path class="cls-1" d="M44.3,144.8l10.1,4.8c1.3.6,2.9-.3,2.9-1.7v-13.3c0-.7-.4-1.4-1.1-1.7l-10.1-4.8c-1.3-.6-2.9.3-2.9,1.7v13.3c0,.7.4,1.4,1.1,1.7Z"/>
    <ellipse class="cls-1" cx="59.6" cy="59" rx="2.3" ry="3.4"/>
    <ellipse class="cls-1" cx="58.4" cy="117.3" rx="2.3" ry="3.4"/>
    <polyline class="cls-2" points="76.9 159.1 79.5 23 13.9 4.4"/>
    <path class="cls-1" d="M6.3,36.9l2.5,1.2c.7.4,1.6-.2,1.6-.9v-2.1c0-.4-.2-.8-.6-.9l-2.5-1.2c-.7-.4-1.6.2-1.6.9v2.1c0,.4.2.8.6.9Z"/>
    <path class="cls-1" d="M6.3,52.4l2.5,1.2c.7.4,1.6-.2,1.6-.9v-2.1c0-.4-.2-.8-.6-.9l-2.5-1.2c-.7-.4-1.6.2-1.6.9v2.1c0,.4.2.8.6.9Z"/>
    <path class="cls-1" d="M6.3,67.8l2.5,1.2c.7.4,1.6-.2,1.6-.9v-2.1c0-.4-.2-.8-.6-.9l-2.5-1.2c-.7-.4-1.6.2-1.6.9v2.1c0,.4.2.8.6.9Z"/>
    <path class="cls-1" d="M6.3,83.2l2.5,1.2c.7.4,1.6-.2,1.6-.9v-2.1c0-.4-.2-.8-.6-.9l-2.5-1.2c-.7-.4-1.6.2-1.6.9v2.1c0,.4.2.8.6.9Z"/>
    <path class="cls-1" d="M6.3,98.6l2.5,1.2c.7.4,1.6-.2,1.6-.9v-2.1c0-.4-.2-.8-.6-.9l-2.5-1.2c-.7-.4-1.6.2-1.6.9v2.1c0,.4.2.8.6.9Z"/>
    <path class="cls-1" d="M23.3,34.4c.3.2,2.1,1.8,1.3,5.9-.5,2.5-2.6,5-3.3,4.8-1.1-.3-.8-6.2,3-8.8s2.3-1,3-.6c.3.2,2.1,1.8,1.3,5.9-.5,2.5-2.6,5-3.3,4.8-1.1-.3-.8-6.2,3-8.8s2.3-1,3-.6h0c.3.2,2.1,1.8,1.3,5.9-.5,2.5-2.6,5-3.3,4.8-1.1-.3-.8-6.2,3-8.8s2.3-1,3-.6c.3.2,2.1,1.8,1.3,5.9-.5,2.5-2.6,5-3.3,4.8-1.1-.3-.8-6.2,3-8.8s2.3-1,3-.6c0,0,2.1,1.8,1.3,5.9-.5,2.5-2.6,5-3.3,4.8-1.1-.3-.8-6.2,3-8.8,1.1-.7,2.3-1,3-.6.3.2,2.1,1.8,1.3,5.9-.5,2.5-2.6,5-3.3,4.8-1.1-.3-.8-6.2,3-8.8s2.3-1,3-.6h0c.3.2,2.1,1.8,1.3,5.9-.5,2.5-2.6,5-3.3,4.8-1.1-.3-.8-6.2,3-8.8"/>
    <path class="cls-1" d="M22.9,48.9c.3.2,2.1,1.8,1.3,5.9-.5,2.5-2.6,5-3.3,4.8-1.1-.3-.8-6.2,3-8.8,1.1-.7,2.3-1,3-.6.3.2,2.1,1.8,1.3,5.9-.5,2.5-2.6,5-3.3,4.8-1.1-.3-.8-6.2,3-8.8,1.1-.7,2.3-1,3-.6h0c.3.2,2.1,1.8,1.3,5.9-.5,2.5-2.6,5-3.3,4.8-1.1-.3-.8-6.2,3-8.8,1.1-.7,2.3-1,3-.6.3.2,2.1,1.8,1.3,5.9-.5,2.5-2.6,5-3.3,4.8-1.1-.3-.8-6.2,3-8.8s2.3-1,3-.6c0,0,2.1,1.8,1.3,5.9-.5,2.5-2.6,5-3.3,4.8-1.1-.3-.8-6.2,3-8.8s2.3-1,3-.6c.3.2,2.1,1.8,1.3,5.9-.5,2.5-2.6,5-3.3,4.8-1.1-.3-.8-6.2,3-8.8s2.3-1,3-.6h0c.3.2,2.1,1.8,1.3,5.9-.5,2.5-2.6,5-3.3,4.8-1.1-.3-.8-6.2,3-8.8"/>
    <path class="cls-1" d="M22.3,63.7c.3.2,2.1,1.8,1.3,5.9-.5,2.5-2.6,5-3.3,4.8-1.1-.3-.8-6.2,3-8.8s2.3-1,3-.6c.3.2,2.1,1.8,1.3,5.9-.5,2.5-2.6,5-3.3,4.8-1.1-.3-.8-6.2,3-8.8,1.1-.7,2.3-1,3-.6h0c.3.2,2.1,1.8,1.3,5.9-.5,2.5-2.6,5-3.3,4.8-1.1-.3-.8-6.2,3-8.8s2.3-1,3-.6c.3.2,2.1,1.8,1.3,5.9-.5,2.5-2.6,5-3.3,4.8-1.1-.3-.8-6.2,3-8.8s2.3-1,3-.6c0,0,2.1,1.8,1.3,5.9-.5,2.5-2.6,5-3.3,4.8-1.1-.3-.8-6.2,3-8.8s2.3-1,3-.6c.3.2,2.1,1.8,1.3,5.9-.5,2.5-2.6,5-3.3,4.8-1.1-.3-.8-6.2,3-8.8,1.1-.7,2.3-1,3-.6h0c.3.2,2.1,1.8,1.3,5.9-.5,2.5-2.6,5-3.3,4.8-1.1-.3-.8-6.2,3-8.8"/>
    <path class="cls-1" d="M22.9,79.1c.3.2,2.1,1.8,1.3,5.9-.5,2.5-2.6,5-3.3,4.8-1.1-.3-.8-6.2,3-8.8s2.3-1,3-.6c.3.2,2.1,1.8,1.3,5.9-.5,2.5-2.6,5-3.3,4.8-1.1-.3-.8-6.2,3-8.8s2.3-1,3-.6h0c.3.2,2.1,1.8,1.3,5.9-.5,2.5-2.6,5-3.3,4.8-1.1-.3-.8-6.2,3-8.8,1.1-.7,2.3-1,3-.6.3.2,2.1,1.8,1.3,5.9-.5,2.5-2.6,5-3.3,4.8-1.1-.3-.8-6.2,3-8.8,1.1-.7,2.3-1,3-.6,0,0,2.1,1.8,1.3,5.9-.5,2.5-2.6,5-3.3,4.8-1.1-.3-.8-6.2,3-8.8s2.3-1,3-.6c.3.2,2.1,1.8,1.3,5.9-.5,2.5-2.6,5-3.3,4.8-1.1-.3-.8-6.2,3-8.8s2.3-1,3-.6h0c.3.2,2.1,1.8,1.3,5.9-.5,2.5-2.6,5-3.3,4.8-1.1-.3-.8-6.2,3-8.8"/>
    <path class="cls-1" d="M48.2,103.4c-3.5-.5-4.8-.1-6.7,2-.9,1-2.4,3.5-1.3,4.9.8,1,2.6,1.4,3.8.8,2.2-1.1,1.4-5,1.4-5.3-.7-3.3-2.4-4.1-3.2-4.6l-1.4-.3c-.7,0-3.6.1-5.5,2.3-.9,1-2.4,3.5-1.3,4.9.8,1,2.6,1.4,3.8.8,2.2-1.1,1.4-5,1.4-5.3-.7-3.3-2.8-4.1-3.6-4.6l-1.6-.4c-.7,0-3.6-.2-5.5,2-.9,1-2.4,3.5-1.3,4.9.8,1,2.6,1.4,3.8.8,2.2-1.1,1.4-5,1.4-5.3-.7-3.3-2.4-4.1-3.2-4.6l-1.4-.3c-.7,0-3.6.1-5.5,2.3-.9,1-2.4,3.5-1.3,4.9.8,1,2.6,1.4,3.8.8,2.2-1.1,1.5-5,1.4-5.3-.4-1.8-1.2-4.2-4.9-4.3"/>
    <path class="cls-1" d="M29.5,100.4"/>
  </g>
</svg>